# xmcd
#
# Track frame offsets:
#	150
#	19998
#	40597
#	63331
#	85631
#	102079
#	124173
#	142743
#	160545
#	174215
#	186975
#	209129
#
# Disc length: 2951 seconds
#
# Revision: 0
# Processed by: cddbd v1.5.2PL0 Copyright (c) Steve Scherf et al.
# Submitted via: dBpowerAMP V4.0
#
DISCID=950b850c
DTITLE=Dan Sultan - Homemade Biscuits
DYEAR=2006
DGENRE=Blues
TTITLE0=Your Love is Like a Song
TTITLE1=Enemy
TTITLE2=Forever
TTITLE3=Caroline
TTITLE4=The Door is Still Open (to me heart)
TTITLE5=Miss Linda
TTITLE6=Whip on Hide
TTITLE7=Fool
TTITLE8=Lonesome Tears
TTITLE9=Money
TTITLE10=Voices
TTITLE11=Roslyn
EXTD=
EXTT0=
EXTT1=
EXTT2=
EXTT3=
EXTT4=
EXTT5=
EXTT6=
EXTT7=
EXTT8=
EXTT9=
EXTT10=
EXTT11=
PLAYORDER=
